<?xml version="1.0" encoding="UTF-8"?>
<svg enable-background="new 0 0 512.002 512.002" version="1.1" viewBox="0 0 512 512" xml:space="preserve" xmlns="http://www.w3.org/2000/svg">
<path d="m503.17 423.72h-494.34c-4.875 0-8.828-3.953-8.828-8.828v-317.79c0-4.875 3.953-8.828 8.828-8.828h494.34c4.875 0 8.828 3.953 8.828 8.828v317.79c-1e-3 4.875-3.954 8.828-8.829 8.828z" fill="#41479B"/>
<path d="M512,97.104c0-4.875-3.953-8.828-8.828-8.828h-39.495l-163.54,107.147V88.276h-88.276v107.147  L48.322,88.276H8.828C3.953,88.276,0,92.229,0,97.104v22.831l140.309,91.927H0v88.276h140.309L0,392.066v22.831  c0,4.875,3.953,8.828,8.828,8.828h39.495l163.54-107.147v107.147h88.276V316.578l163.54,107.147h39.495  c4.875,0,8.828-3.953,8.828-8.828v-22.831l-140.309-91.927H512v-88.276H371.691L512,119.935V97.104z" fill="#F5F5F5"/>
<g fill="#FF4B55">
	<polygon points="512 229.52 282.48 229.52 282.48 88.276 229.52 88.276 229.52 229.52 0 229.52 0 282.48 229.52 282.48 229.52 423.72 282.48 423.72 282.48 282.48 512 282.48"/>
	<path d="m178.95 300.14-178.7 116c0.625 4.263 4.14 7.59 8.577 7.59h12.159l190.39-123.59h-32.428v-1e-3z"/>
	<path d="m346.39 300.14h-32.428l190.11 123.4c4.431-0.472 7.928-4.09 7.928-8.646v-7.258l-165.61-107.5z"/>
	<path d="M0,106.849l161.779,105.014h32.428L5.143,89.137C2.123,90.54,0,93.555,0,97.104V106.849z"/>
	<path d="m332.57 211.86 179.13-116.28c-0.744-4.122-4.184-7.309-8.521-7.309h-12.647l-190.39 123.59h32.428z"/>
</g>
</svg>