<?xml version="1.0" encoding="UTF-8"?>
<svg data-name="Слой 1" viewBox="0 0 225 225" xmlns="http://www.w3.org/2000/svg">
<defs>
<style>.cls-1{fill:#fe6600;}.cls-2{fill:#fefcfc;}</style>
</defs>
<title>kp 1</title>
<path class="cls-1" transform="translate(51 99)" d="M-51,126V-99H174V126ZM61.738,93.849c44.132-.159,80.35-36.648,80.111-80.712-.239-43.956-36.418-79.978-80.336-79.987-44.11-.009-80.44,36.367-80.362,80.463C-18.771,57.736,17.659,94.008,61.738,93.849Z"/>
<path class="cls-2" transform="translate(51 99)" d="M61.738,93.849c-44.079.159-80.509-36.113-80.587-80.236-.078-44.1,36.252-80.472,80.362-80.463,43.918.009,80.1,36.031,80.336,79.987C142.088,57.2,105.87,93.69,61.738,93.849Zm-2.909-41.97A20.615,20.615,0,1,0,79.521,31.363,20.629,20.629,0,0,0,58.829,51.879Zm39.18-35.751A20.6,20.6,0,0,0,119.018-4.567,20.606,20.606,0,0,0,98.351-25.1,20.254,20.254,0,0,0,77.74-4.636C77.683,7.032,86.481,16.046,98.009,16.128ZM64.183-24.892A20.618,20.618,0,0,0,44.014-45.944,20.781,20.781,0,0,0,22.934-25.23a20.474,20.474,0,0,0,20.482,20.7A20.382,20.382,0,0,0,64.183-24.892ZM22.722,52.066a20.463,20.463,0,0,0,20.75-20.435A20.375,20.375,0,0,0,23.157,10.818a20.627,20.627,0,1,0-.435,41.248ZM61.6,2.241a11.447,11.447,0,0,0-11.35,11.034,11.259,11.259,0,1,0,22.515.206A11.534,11.534,0,0,0,61.6,2.241Z"/>
<path class="cls-1" transform="translate(51 99)" d="m58.829 51.879a20.617 20.617 0 1 1 20.719 21 20.558 20.558 0 0 1-20.719-21z"/>
<path class="cls-1" transform="translate(51 99)" d="M98.009,16.128c-11.528-.082-20.326-9.1-20.269-20.764A20.254,20.254,0,0,1,98.351-25.1,20.606,20.606,0,0,1,119.018-4.567,20.6,20.6,0,0,1,98.009,16.128Z"/>
<path class="cls-1" transform="translate(51 99)" d="M64.183-24.892A20.382,20.382,0,0,1,43.416-4.526a20.474,20.474,0,0,1-20.482-20.7,20.781,20.781,0,0,1,21.08-20.714A20.618,20.618,0,0,1,64.183-24.892Z"/>
<path class="cls-1" transform="translate(51 99)" d="m22.722 52.066a20.627 20.627 0 1 1 0.435-41.248 20.375 20.375 0 0 1 20.315 20.813 20.463 20.463 0 0 1-20.75 20.435z"/>
<path class="cls-1" transform="translate(51 99)" d="M61.6,2.241a11.534,11.534,0,0,1,11.165,11.24,11.259,11.259,0,1,1-22.515-.206A11.447,11.447,0,0,1,61.6,2.241Z"/>
</svg>
