<?xml version="1.0" encoding="UTF-8"?>
<svg data-name="Слой 1" viewBox="0 0 126.16 70.663" xmlns="http://www.w3.org/2000/svg">
<defs>
<style>.cls-1{fill:#515b6a;}.cls-2{fill:#9a9694;}.cls-3{fill:#464d57;}.cls-4{fill:#5c697d;}.cls-5{fill:#b3d6e0;}.cls-6{fill:#9cc9da;}</style>
</defs>
<title>binoculars 128</title>
<path class="cls-1" transform="translate(-.918 -28.668)" d="M55.405,38.36h-.249a20.232,20.232,0,0,0-34.539,0h-.043L2.764,61.978,57.321,73.523l.451-7.622Z"/>
<polygon class="cls-2" points="54.982 43.328 54.979 43.133 54.036 42.958"/>
<path class="cls-1" transform="translate(-.918 -28.668)" d="M121.5,55.5,108.731,41a20.226,20.226,0,0,0-35.888-2.64l-.868,35.387,0,.074L98.24,74.98Z"/>
<polygon class="cls-3" points="71.925 9.691 54.487 9.691 53.136 43.955 64.293 44.855 73.633 45.447 72.883 44.826"/>
<path class="cls-4" transform="translate(-.918 -28.668)" d="M64,66.2a55.443,55.443,0,0,1-17.816-2.92h-.1V80.713h.1a55.826,55.826,0,0,1,35.631,0h.1V63.278h-.1A55.436,55.436,0,0,1,64,66.2Z"/>
<path class="cls-4" transform="translate(-.918 -28.668)" d="M55.9,72A27.491,27.491,0,1,1,28.408,44.66,27.415,27.415,0,0,1,55.9,72Z"/>
<path class="cls-4" transform="translate(-.918 -28.668)" d="m127.08 72a27.491 27.491 0 1 1-27.49-27.34 27.414 27.414 0 0 1 27.49 27.34z"/>
<path class="cls-5" transform="translate(-.918 -28.668)" d="m28.408 51.728a20.246 20.246 0 0 0-13.596 35.372l25.836-31.31a20.37 20.37 0 0 0-12.24-4.062z"/>
<path class="cls-6" transform="translate(-.918 -28.668)" d="M40.648,55.787,14.812,87.1a20.319,20.319,0,1,0,25.836-31.31Z"/>
<path class="cls-5" transform="translate(-.918 -28.668)" d="m99.592 51.728a20.245 20.245 0 0 0-12.869 35.986l24.407-32.428a20.368 20.368 0 0 0-11.538-3.558z"/>
<path class="cls-6" transform="translate(-.918 -28.668)" d="m111.13 55.286-24.407 32.428a20.314 20.314 0 1 0 24.407-32.428z"/>
</svg>
